<svg xmlns="http://www.w3.org/2000/svg" width="16" height="21" viewBox="0 0 16 21" fill="none">
  <path fill-rule="evenodd" clip-rule="evenodd" d="M15.9707 6.0789H10.2856V5.52624C10.2817 4.52135 9.57742 3.64541 8.57129 3.39419V0H9.14274C12.7053 0.00500821 15.6714 2.64571 15.9707 6.0789Z" fill="white" fill-opacity="0.6"/>
  <path fill-rule="evenodd" clip-rule="evenodd" d="M8.00026 4.42188C8.63146 4.42188 9.14311 4.91669 9.14311 5.52712V7.73762C9.14311 8.34806 8.63146 8.84287 8.00026 8.84287C7.36906 8.84287 6.85742 8.34806 6.85742 7.73762V5.52712C6.85742 4.91675 7.36906 4.42188 8.00026 4.42188Z" fill="#FF3D00"/>
  <path fill-rule="evenodd" clip-rule="evenodd" d="M6.85728 0H7.42873V3.39425C6.42261 3.64547 5.71832 4.5214 5.71444 5.5263V6.07895H0.0292969C0.328617 2.64571 3.2947 0.0050082 6.85728 0Z" fill="white" fill-opacity="0.6"/>
  <path fill-rule="evenodd" clip-rule="evenodd" d="M9.14285 20.9994H6.85715C3.07174 20.9955 0.00407813 18.0287 0 14.3678V7.18359H5.7143V7.73625C5.7143 8.95707 6.73766 9.94676 8 9.94676C9.26234 9.94676 10.2857 8.95707 10.2857 7.73625V7.18359H16V14.3678C15.9959 18.0287 12.9283 20.9955 9.14285 20.9994Z" fill="white" fill-opacity="0.6"/>
</svg>