<svg width="40" height="40" viewBox="0 0 40 40" fill="none" xmlns="http://www.w3.org/2000/svg">
  <g id="Group 9449">
    <g id="Group">
      <path id="Vector" opacity="0.986" fill-rule="evenodd" clip-rule="evenodd" d="M39.9999 2.72442C39.9999 7.89072 39.9999 13.057 39.9999 18.2233C39.1017 25.1733 35.8205 29.7399 30.1562 31.9233C29.3329 32.1464 28.5256 32.085 27.7343 31.7387C27.6618 31.703 27.6097 31.6414 27.5781 31.5542C28.2773 28.4412 28.3034 25.3199 27.6562 22.1903C29.6652 21.5665 31.4099 22.1047 32.8906 23.8048C33.5091 24.2852 34.0689 24.2082 34.5702 23.5741C34.8882 22.8322 34.7971 22.171 34.2968 21.5907C32.1259 19.3987 29.6519 18.7222 26.8749 19.561C26.0369 17.3973 25.1775 15.2446 24.2968 13.1032C25.4928 13.1145 26.5214 12.6378 27.3828 11.6732C27.9291 10.4725 27.6426 9.70364 26.5234 9.36681C26.0649 9.50824 25.6612 9.7696 25.3124 10.151C24.765 10.4189 24.2182 10.3882 23.6718 10.0587C23.417 9.7732 23.1306 9.54256 22.8125 9.36681C22.2478 7.87956 21.6619 6.40347 21.0546 4.93855C20.819 4.6072 20.5196 4.40731 20.1562 4.33889C19.5579 4.29279 18.9589 4.27741 18.3593 4.29276C18.3464 3.76908 18.3594 3.2463 18.3984 2.72442C18.5301 2.2729 18.7775 1.95001 19.1406 1.75574C21.5468 0.787703 24.0207 0.23417 26.5624 0.0951415C29.9238 -0.155987 33.2571 0.0900305 36.5624 0.833185C37.5841 1.08854 38.5736 1.45756 39.5312 1.94025C39.7188 2.18669 39.8751 2.44808 39.9999 2.72442ZM32.1874 9.36681C32.7249 9.34587 33.1675 9.57651 33.5156 10.0587C34.3977 10.5306 35.1789 10.3461 35.8593 9.50519C36.6511 9.22695 37.1849 9.54984 37.4609 10.4739C37.5251 11.1681 37.3037 11.7063 36.7968 12.0883C35.1822 13.3799 33.5677 13.3799 31.9531 12.0883C30.9629 11.0348 31.041 10.1275 32.1874 9.36681Z" fill="url(#paint0_linear_3072_468)"/>
    </g>
    <g id="Group_2">
      <path id="Vector_2" opacity="0.985" fill-rule="evenodd" clip-rule="evenodd" d="M0 18.7758C0 18.376 0 17.9762 0 17.5765C0.291134 17.0935 0.629676 16.6476 1.01562 16.2388C4.91106 12.4927 9.28607 9.75578 14.1406 8.02802C15.6943 7.4506 17.2828 7.14311 18.9062 7.10547C19.2722 7.23001 19.5457 7.49137 19.7265 7.88964C21.5661 12.4804 23.363 17.0931 25.1171 21.728C26.6378 28.0291 25.505 33.5491 21.7187 38.2878C21.3247 38.7225 20.908 39.1222 20.4687 39.4871C14.8529 40.9975 10.1784 39.1678 6.4453 33.9979C6.06133 33.368 5.69675 32.7222 5.35155 32.0606C3.58529 27.6127 1.80143 23.1845 0 18.7758ZM18.0468 16.1004C18.8185 16.0274 19.5476 16.1965 20.2343 16.6078C20.7024 17.2325 20.7415 17.8937 20.3515 18.5913C19.9687 18.985 19.539 19.0927 19.0625 18.9142C18.0071 18.6838 17.291 19.1605 16.914 20.3441C16.2657 21.1971 15.6146 21.1971 14.9609 20.3441C14.7009 19.8532 14.7009 19.3612 14.9609 18.868C15.5982 17.3307 16.6268 16.4081 18.0468 16.1004ZM9.37498 20.9899C10.0599 20.9846 10.7109 21.1537 11.3281 21.4973C11.9694 22.2692 11.9433 23.0073 11.25 23.7114C11.126 23.791 10.9958 23.8525 10.8593 23.896C10.4642 23.9202 10.0736 23.8741 9.68748 23.7576C8.82506 23.8286 8.26513 24.3513 8.00779 25.3259C7.38279 26.064 6.7578 26.064 6.1328 25.3259C5.8777 24.775 5.8777 24.2214 6.1328 23.6653C6.83203 22.1228 7.91271 21.2311 9.37498 20.9899ZM19.9999 25.4182C21.0134 25.5368 21.417 26.1826 21.2109 27.3555C19.5864 31.5675 16.813 33.4281 12.8906 32.937C12.3757 32.8235 11.8809 32.639 11.4062 32.3835C10.9086 31.8374 10.8174 31.2069 11.1328 30.4922C11.4683 29.9945 11.898 29.8253 12.4218 29.9848C15.6329 30.9564 17.8855 29.6495 19.1796 26.064C19.3907 25.7178 19.6641 25.5026 19.9999 25.4182Z" fill="url(#paint1_linear_3072_468)"/>
    </g>
  </g>
  <defs>
    <linearGradient id="paint0_linear_3072_468" x1="29.1772" y1="0" x2="29.1772" y2="32.0545" gradientUnits="userSpaceOnUse">
      <stop stop-color="#FF6E41"/>
      <stop offset="1" stop-color="#A14528"/>
    </linearGradient>
    <linearGradient id="paint1_linear_3072_468" x1="12.8854" y1="7.10547" x2="12.8854" y2="39.9994" gradientUnits="userSpaceOnUse">
      <stop stop-color="#FF6E41"/>
      <stop offset="1" stop-color="#A14528"/>
    </linearGradient>
  </defs>
</svg>