<svg xmlns="http://www.w3.org/2000/svg" width="12" height="13" viewBox="0 0 12 13" fill="none">
  <path fill-rule="evenodd" clip-rule="evenodd" d="M7.28571 1.3C9.24552 1.3 10.8 2.95956 10.8 4.9617C10.8 6.96385 9.24552 8.62341 7.28571 8.62341C6.39135 8.62341 5.58139 8.27779 4.96506 7.71171C4.95758 7.70442 4.94996 7.69736 4.94222 7.69055C4.22134 7.0168 3.77143 6.03883 3.77143 4.9617C3.77143 2.95956 5.32591 1.3 7.28571 1.3ZM3.70585 8.19075C2.99995 7.32574 2.57143 6.19998 2.57143 4.9617C2.57143 2.20127 4.701 0 7.28571 0C9.87042 0 12 2.20127 12 4.9617C12 7.72214 9.87042 9.92341 7.28571 9.92341C6.29693 9.92341 5.37474 9.60126 4.61291 9.0489L1.01717 12.8172C0.779002 13.0668 0.399156 13.0599 0.168758 12.8019C-0.0616379 12.5439 -0.0553379 12.1324 0.182831 11.8828L3.70585 8.19075Z" fill="white" fill-opacity="0.15"/>
</svg>