<svg width="43" height="46" viewBox="0 0 43 46" fill="none" xmlns="http://www.w3.org/2000/svg">
<g id="Group 2914">
<g id="Group 2913">
<path id="Vector" d="M5.74628 10.7349L5.37751 10.0818L5.74628 10.7349L18.4912 3.5382C20.3523 2.48727 22.6476 2.48727 24.5088 3.5382L37.2537 10.7349L37.6153 10.0945L37.2537 10.7349C39.1132 11.7848 40.25 13.7191 40.25 15.8033V30.1967C40.25 32.2808 39.1132 34.2151 37.2537 35.2651L24.5088 42.4618C22.6476 43.5127 20.3524 43.5127 18.4912 42.4618L5.74629 35.2651C3.88687 34.2151 2.75 32.2807 2.75 30.1967V15.8033C2.75 13.7191 3.88688 11.7848 5.74628 10.7349Z" stroke="white" stroke-opacity="0.75" stroke-width="1.5"/>
<path id="Vector_2" d="M18.0206 1.4055C20.1731 0.198167 22.8269 0.198167 24.9794 1.4055L39.0315 9.28759C41.1825 10.4941 42.5 12.7185 42.5 15.1179V30.8821C42.5 33.2813 41.1825 35.5058 39.0315 36.7124L24.9794 44.5945C22.8269 45.8018 20.1731 45.8018 18.0206 44.5945L3.96853 36.7124C1.81756 35.5058 0.5 33.2813 0.5 30.8821V15.1179C0.5 12.7185 1.81757 10.4941 3.96853 9.28759L18.0206 1.4055Z" stroke="white" stroke-opacity="0.35"/>
</g>
<g id="Group 2912">
<path id="Vector_3" fill-rule="evenodd" clip-rule="evenodd" d="M18.642 6.71652C20.4105 5.76116 22.5895 5.76116 24.358 6.71652L35.1421 12.5424C36.9106 13.4978 38 15.2634 38 17.1741V28.8259C38 30.7365 36.9106 32.5022 35.1421 33.4576L24.358 39.2835C22.5895 40.2388 20.4105 40.2388 18.642 39.2835L7.85789 33.4576C6.08943 32.5022 5 30.7365 5 28.8259V17.1741C5 15.2634 6.08943 13.4978 7.85789 12.5424L18.642 6.71652Z" fill="#FFC700" fill-opacity="0.9"/>
<g id="Group 2911">
<path id="Vector_4" d="M21.5 16.2793C22.3284 16.2793 23 16.9509 23 17.7793V23.2134C23 24.0418 22.3284 24.7134 21.5 24.7134C20.6716 24.7134 20 24.0418 20 23.2134V17.7793C20 16.9509 20.6716 16.2793 21.5 16.2793ZM20 27.8762C20 28.4584 20.472 28.9305 21.0543 28.9305H21.9457C22.528 28.9305 23 28.4584 23 27.8762C23 27.2939 22.528 26.8219 21.9457 26.8219H21.0543C20.472 26.8219 20 27.2939 20 27.8762Z" fill="#181818"/>
</g>
</g>
</g>
</svg>
