<svg width="43" height="46" viewBox="0 0 43 46" fill="none" xmlns="http://www.w3.org/2000/svg">
<path fill-rule="evenodd" clip-rule="evenodd" d="M18.6267 6.37975C20.4051 5.40467 22.5963 5.40467 24.3747 6.37975L35.2193 12.3259C36.9977 13.301 38.0932 15.103 38.0932 17.0532V28.9455C38.0932 30.8955 36.9977 32.6976 35.2193 33.6727L24.3747 39.6189C22.5963 40.594 20.4051 40.594 18.6267 39.6189L7.78212 33.6727C6.00374 32.6976 4.9082 30.8955 4.9082 28.9455V17.0532C4.9082 15.103 6.00374 13.301 7.78212 12.3259L18.6267 6.37975ZM16.6561 18.3986C17.1913 17.8904 18.0589 17.8904 18.594 18.3986L21.5006 21.1591L24.4074 18.3986C24.9425 17.8904 25.8102 17.8904 26.3453 18.3986C26.8802 18.9068 26.8802 19.7308 26.3453 20.239L23.4385 22.9993L26.3453 25.76C26.8804 26.2682 26.8804 27.0921 26.3453 27.6003C25.8102 28.1085 24.9427 28.1085 24.4076 27.6003L21.5006 24.8397L18.5938 27.6003C18.0587 28.1085 17.1911 28.1085 16.656 27.6003C16.1209 27.0921 16.1209 26.2682 16.656 25.76L19.5629 22.9993L16.6561 20.239C16.121 19.7308 16.121 18.9068 16.6561 18.3986Z" fill="#D52726" fill-opacity="0.9"/>
<path d="M5.74628 10.7349L5.37751 10.0818L5.74628 10.7349L18.4912 3.5382C20.3523 2.48727 22.6476 2.48727 24.5088 3.5382L37.2537 10.7349L37.6153 10.0945L37.2537 10.7349C39.1132 11.7848 40.25 13.7191 40.25 15.8033V30.1967C40.25 32.2808 39.1132 34.2151 37.2537 35.2651L24.5088 42.4618C22.6476 43.5127 20.3524 43.5127 18.4912 42.4618L5.74629 35.2651C3.88687 34.2151 2.75 32.2807 2.75 30.1967V15.8033C2.75 13.7191 3.88688 11.7848 5.74628 10.7349Z" stroke="white" stroke-opacity="0.75" stroke-width="1.5"/>
<path d="M18.0206 1.4055C20.1731 0.198167 22.8269 0.198167 24.9794 1.4055L39.0315 9.28759C41.1825 10.4941 42.5 12.7185 42.5 15.1179V30.8821C42.5 33.2813 41.1825 35.5058 39.0315 36.7124L24.9794 44.5945C22.8269 45.8018 20.1731 45.8018 18.0206 44.5945L3.96853 36.7124C1.81756 35.5058 0.5 33.2813 0.5 30.8821V15.1179C0.5 12.7185 1.81757 10.4941 3.96853 9.28759L18.0206 1.4055Z" stroke="white" stroke-opacity="0.35"/>
</svg>
